<svg xmlns="http://www.w3.org/2000/svg" xmlns:xlink="http://www.w3.org/1999/xlink" width="752" zoomAndPan="magnify" viewBox="0 0 564 160.499995" height="214" preserveAspectRatio="xMidYMid meet" version="1.0"><defs><filter x="0%" y="0%" width="100%" height="100%" id="a1f611423a"><feColorMatrix values="0 0 0 0 1 0 0 0 0 1 0 0 0 0 1 0 0 0 1 0" color-interpolation-filters="sRGB"/></filter><g/><clipPath id="b2372384b7"><path d="M 0.875 0 L 563.125 0 L 563.125 160 L 0.875 160 Z M 0.875 0 " clip-rule="nonzero"/></clipPath><clipPath id="d228291ffe"><path d="M 0.875 0 L 563.125 0 L 563.125 160 L 0.875 160 Z M 0.875 0 " clip-rule="nonzero"/></clipPath><clipPath id="3e2fe7e3da"><path d="M 0.875 0 L 563.125 0 L 563.125 160 L 0.875 160 Z M 0.875 0 " clip-rule="nonzero"/></clipPath><clipPath id="0ad24b9ec1"><rect x="0" width="564" y="0" height="160"/></clipPath><clipPath id="470fd766e6"><rect x="0" width="564" y="0" height="160"/></clipPath><mask id="b5af9520d6"><g filter="url(#a1f611423a)"><g><g clip-path="url(#470fd766e6)"><g clip-path="url(#3e2fe7e3da)"><g><g clip-path="url(#0ad24b9ec1)"><g fill="#000000" fill-opacity="1"><g transform="translate(24.724425, 111.675056)"><g><path d="M 39.828125 -11.53125 C 37.390625 -11.53125 34.921875 -11.90625 32.421875 -12.65625 C 29.859375 -13.40625 27.546875 -14.617188 25.484375 -16.296875 C 23.421875 -17.921875 21.765625 -20.109375 20.515625 -22.859375 C 19.203125 -25.546875 18.546875 -28.859375 18.546875 -32.796875 C 18.546875 -36.734375 19.203125 -40.078125 20.515625 -42.828125 C 21.765625 -45.503906 23.421875 -47.6875 25.484375 -49.375 C 27.546875 -51 29.859375 -52.1875 32.421875 -52.9375 C 34.921875 -53.6875 37.390625 -54.0625 39.828125 -54.0625 C 42.265625 -54.0625 44.757812 -53.6875 47.3125 -52.9375 C 49.8125 -52.1875 52.09375 -51 54.15625 -49.375 C 56.21875 -47.6875 57.90625 -45.503906 59.21875 -42.828125 C 60.46875 -40.078125 61.09375 -36.734375 61.09375 -32.796875 C 61.09375 -28.859375 60.46875 -25.546875 59.21875 -22.859375 C 57.90625 -20.109375 56.21875 -17.921875 54.15625 -16.296875 C 52.09375 -14.617188 49.8125 -13.40625 47.3125 -12.65625 C 44.757812 -11.90625 42.265625 -11.53125 39.828125 -11.53125 Z M 39.828125 -65.59375 C 35.015625 -65.59375 30.609375 -64.8125 26.609375 -63.25 C 22.609375 -61.625 19.171875 -59.375 16.296875 -56.5 C 13.367188 -53.5625 11.09375 -50.097656 9.46875 -46.109375 C 7.84375 -42.046875 7.03125 -37.609375 7.03125 -32.796875 C 7.03125 -27.984375 7.84375 -23.578125 9.46875 -19.578125 C 11.09375 -15.523438 13.367188 -12.0625 16.296875 -9.1875 C 19.171875 -6.25 22.609375 -4 26.609375 -2.4375 C 30.609375 -0.8125 35.015625 0 39.828125 0 C 44.628906 0 49.03125 -0.8125 53.03125 -2.4375 C 57.03125 -4 60.5 -6.25 63.4375 -9.1875 C 66.3125 -12.0625 68.5625 -15.523438 70.1875 -19.578125 C 71.8125 -23.578125 72.625 -27.984375 72.625 -32.796875 C 72.625 -37.609375 71.8125 -42.046875 70.1875 -46.109375 C 68.5625 -50.097656 66.3125 -53.5625 63.4375 -56.5 C 60.5 -59.375 57.03125 -61.625 53.03125 -63.25 C 49.03125 -64.8125 44.628906 -65.59375 39.828125 -65.59375 Z M 39.828125 -65.59375 "/></g></g></g><g fill="#000000" fill-opacity="1"><g transform="translate(103.435881, 111.675056)"><g><path d="M 45.828125 -65.59375 C 44.265625 -65.59375 42.953125 -65.0625 41.890625 -64 L 19.953125 -43.296875 C 19.828125 -43.171875 19.640625 -43.109375 19.390625 -43.109375 C 18.828125 -43.109375 18.546875 -43.390625 18.546875 -43.953125 L 18.546875 -59.875 C 18.546875 -61.5 17.984375 -62.875 16.859375 -64 C 15.742188 -65.0625 14.375 -65.59375 12.75 -65.59375 C 11.125 -65.59375 9.75 -65.03125 8.625 -63.90625 C 7.5 -62.78125 6.9375 -61.40625 6.9375 -59.78125 L 6.9375 -5.71875 C 6.9375 -4.09375 7.5 -2.71875 8.625 -1.59375 C 9.6875 -0.46875 11.03125 0.09375 12.65625 0.09375 C 14.28125 0.09375 15.648438 -0.46875 16.765625 -1.59375 C 17.828125 -2.65625 18.359375 -4 18.359375 -5.625 L 18.359375 -25.671875 C 18.359375 -26.171875 18.640625 -26.421875 19.203125 -26.421875 C 19.453125 -26.421875 19.609375 -26.359375 19.671875 -26.234375 L 46.109375 -1.40625 C 47.160156 -0.34375 48.46875 0.1875 50.03125 0.1875 C 51.34375 0.1875 52.46875 -0.15625 53.40625 -0.84375 C 54.34375 -1.53125 55.03125 -2.40625 55.46875 -3.46875 C 55.84375 -4.46875 55.9375 -5.5625 55.75 -6.75 C 55.5 -7.875 54.90625 -8.875 53.96875 -9.75 L 28.109375 -34.015625 C 27.609375 -34.390625 27.609375 -34.765625 28.109375 -35.140625 L 49.46875 -55.375 C 50.40625 -56.25 51 -57.28125 51.25 -58.46875 C 51.4375 -59.65625 51.375 -60.78125 51.0625 -61.84375 C 50.6875 -62.90625 50.0625 -63.8125 49.1875 -64.5625 C 48.25 -65.25 47.128906 -65.59375 45.828125 -65.59375 Z M 45.828125 -65.59375 "/></g></g></g><g fill="#000000" fill-opacity="1"><g transform="translate(166.592463, 111.675056)"><g><path d="M 12.75 -65.59375 C 11.125 -65.59375 9.75 -65.03125 8.625 -63.90625 C 7.5 -62.78125 6.9375 -61.40625 6.9375 -59.78125 L 6.9375 -5.71875 C 6.9375 -4.09375 7.5 -2.71875 8.625 -1.59375 C 9.6875 -0.46875 11.03125 0.09375 12.65625 0.09375 L 40.859375 0.09375 C 42.484375 0.09375 43.859375 -0.46875 44.984375 -1.59375 C 46.046875 -2.65625 46.578125 -4 46.578125 -5.625 C 46.578125 -7.25 46.015625 -8.625 44.890625 -9.75 C 43.765625 -10.8125 42.390625 -11.34375 40.765625 -11.34375 L 21.828125 -11.34375 C 20.828125 -11.34375 19.984375 -11.6875 19.296875 -12.375 C 18.609375 -13.0625 18.265625 -13.90625 18.265625 -14.90625 L 18.265625 -59.6875 C 18.265625 -61.3125 17.765625 -62.71875 16.765625 -63.90625 C 15.710938 -65.03125 14.375 -65.59375 12.75 -65.59375 Z M 12.75 -65.59375 "/></g></g></g><g fill="#000000" fill-opacity="1"><g transform="translate(213.350714, 111.675056)"><g><path d="M 39.828125 -11.53125 C 37.390625 -11.53125 34.921875 -11.90625 32.421875 -12.65625 C 29.859375 -13.40625 27.546875 -14.617188 25.484375 -16.296875 C 23.421875 -17.921875 21.765625 -20.109375 20.515625 -22.859375 C 19.203125 -25.546875 18.546875 -28.859375 18.546875 -32.796875 C 18.546875 -36.734375 19.203125 -40.078125 20.515625 -42.828125 C 21.765625 -45.503906 23.421875 -47.6875 25.484375 -49.375 C 27.546875 -51 29.859375 -52.1875 32.421875 -52.9375 C 34.921875 -53.6875 37.390625 -54.0625 39.828125 -54.0625 C 42.265625 -54.0625 44.757812 -53.6875 47.3125 -52.9375 C 49.8125 -52.1875 52.09375 -51 54.15625 -49.375 C 56.21875 -47.6875 57.90625 -45.503906 59.21875 -42.828125 C 60.46875 -40.078125 61.09375 -36.734375 61.09375 -32.796875 C 61.09375 -28.859375 60.46875 -25.546875 59.21875 -22.859375 C 57.90625 -20.109375 56.21875 -17.921875 54.15625 -16.296875 C 52.09375 -14.617188 49.8125 -13.40625 47.3125 -12.65625 C 44.757812 -11.90625 42.265625 -11.53125 39.828125 -11.53125 Z M 39.828125 -65.59375 C 35.015625 -65.59375 30.609375 -64.8125 26.609375 -63.25 C 22.609375 -61.625 19.171875 -59.375 16.296875 -56.5 C 13.367188 -53.5625 11.09375 -50.097656 9.46875 -46.109375 C 7.84375 -42.046875 7.03125 -37.609375 7.03125 -32.796875 C 7.03125 -27.984375 7.84375 -23.578125 9.46875 -19.578125 C 11.09375 -15.523438 13.367188 -12.0625 16.296875 -9.1875 C 19.171875 -6.25 22.609375 -4 26.609375 -2.4375 C 30.609375 -0.8125 35.015625 0 39.828125 0 C 44.628906 0 49.03125 -0.8125 53.03125 -2.4375 C 57.03125 -4 60.5 -6.25 63.4375 -9.1875 C 66.3125 -12.0625 68.5625 -15.523438 70.1875 -19.578125 C 71.8125 -23.578125 72.625 -27.984375 72.625 -32.796875 C 72.625 -37.609375 71.8125 -42.046875 70.1875 -46.109375 C 68.5625 -50.097656 66.3125 -53.5625 63.4375 -56.5 C 60.5 -59.375 57.03125 -61.625 53.03125 -63.25 C 49.03125 -64.8125 44.628906 -65.59375 39.828125 -65.59375 Z M 39.828125 -65.59375 "/></g></g></g><g fill="#000000" fill-opacity="1"><g transform="translate(290.656592, 111.675056)"><g><path d="M 39.828125 -11.53125 C 37.390625 -11.53125 34.921875 -11.90625 32.421875 -12.65625 C 29.859375 -13.40625 27.546875 -14.617188 25.484375 -16.296875 C 23.421875 -17.921875 21.765625 -20.109375 20.515625 -22.859375 C 19.203125 -25.546875 18.546875 -28.859375 18.546875 -32.796875 C 18.546875 -36.734375 19.203125 -40.078125 20.515625 -42.828125 C 21.765625 -45.503906 23.421875 -47.6875 25.484375 -49.375 C 27.546875 -51 29.859375 -52.1875 32.421875 -52.9375 C 34.921875 -53.6875 37.390625 -54.0625 39.828125 -54.0625 C 43.078125 -54.0625 46.070312 -53.53125 48.8125 -52.46875 C 51.5625 -51.34375 53.875 -49.78125 55.75 -47.78125 C 56.875 -46.539062 58.28125 -45.921875 59.96875 -45.921875 C 61.40625 -45.921875 62.71875 -46.445312 63.90625 -47.5 C 65.09375 -48.5625 65.71875 -49.90625 65.78125 -51.53125 C 65.78125 -53.09375 65.25 -54.46875 64.1875 -55.65625 C 61.1875 -58.84375 57.59375 -61.3125 53.40625 -63.0625 C 49.21875 -64.75 44.691406 -65.59375 39.828125 -65.59375 C 35.015625 -65.59375 30.609375 -64.8125 26.609375 -63.25 C 22.609375 -61.625 19.171875 -59.375 16.296875 -56.5 C 13.367188 -53.5625 11.09375 -50.097656 9.46875 -46.109375 C 7.84375 -42.046875 7.03125 -37.609375 7.03125 -32.796875 C 7.03125 -27.984375 7.84375 -23.578125 9.46875 -19.578125 C 11.09375 -15.523438 13.367188 -12.0625 16.296875 -9.1875 C 19.171875 -6.25 22.609375 -4 26.609375 -2.4375 C 30.609375 -0.8125 35.015625 0 39.828125 0 C 44.691406 0 49.21875 -0.875 53.40625 -2.625 C 57.59375 -4.3125 61.1875 -6.75 64.1875 -9.9375 C 65.25 -11.125 65.78125 -12.53125 65.78125 -14.15625 C 65.71875 -15.707031 65.09375 -17.015625 63.90625 -18.078125 C 62.71875 -19.140625 61.40625 -19.671875 59.96875 -19.671875 C 58.28125 -19.671875 56.875 -19.046875 55.75 -17.796875 C 53.8125 -15.804688 51.46875 -14.28125 48.71875 -13.21875 C 45.976562 -12.09375 43.015625 -11.53125 39.828125 -11.53125 Z M 39.828125 -11.53125 "/></g></g></g><g fill="#000000" fill-opacity="1"><g transform="translate(363.464682, 111.675056)"><g><path d="M 22.109375 -41.328125 C 21.109375 -41.328125 20.265625 -41.671875 19.578125 -42.359375 C 18.890625 -43.046875 18.546875 -43.890625 18.546875 -44.890625 L 18.546875 -59.875 C 18.546875 -61.5 17.984375 -62.875 16.859375 -64 C 15.742188 -65.0625 14.375 -65.59375 12.75 -65.59375 C 11.125 -65.59375 9.75 -65.03125 8.625 -63.90625 C 7.5 -62.78125 6.9375 -61.40625 6.9375 -59.78125 L 6.9375 -5.71875 C 6.9375 -4.09375 7.5 -2.71875 8.625 -1.59375 C 9.6875 -0.46875 11.03125 0.09375 12.65625 0.09375 C 14.28125 0.09375 15.648438 -0.46875 16.765625 -1.59375 C 17.828125 -2.65625 18.359375 -4 18.359375 -5.625 L 18.359375 -26.140625 C 18.359375 -27.140625 18.703125 -27.984375 19.390625 -28.671875 C 20.078125 -29.359375 20.921875 -29.703125 21.921875 -29.703125 L 44.234375 -29.703125 C 45.234375 -29.703125 46.078125 -29.359375 46.765625 -28.671875 C 47.441406 -27.984375 47.78125 -27.140625 47.78125 -26.140625 L 47.78125 -5.625 C 47.78125 -4 48.34375 -2.625 49.46875 -1.5 C 50.53125 -0.375 51.875 0.1875 53.5 0.1875 C 55.125 0.1875 56.5 -0.375 57.625 -1.5 C 58.6875 -2.5625 59.21875 -3.90625 59.21875 -5.53125 L 59.21875 -59.59375 C 59.21875 -61.21875 58.65625 -62.59375 57.53125 -63.71875 C 56.40625 -64.78125 55.03125 -65.3125 53.40625 -65.3125 C 51.78125 -65.3125 50.40625 -64.75 49.28125 -63.625 C 48.15625 -62.5 47.59375 -61.125 47.59375 -59.5 L 47.59375 -44.515625 C 47.59375 -42.390625 46.535156 -41.328125 44.421875 -41.328125 Z M 22.109375 -41.328125 "/></g></g></g><g fill="#000000" fill-opacity="1"><g transform="translate(429.994647, 111.675056)"><g><path d="M 39.921875 0 C 41.546875 0 42.921875 -0.5625 44.046875 -1.6875 C 45.109375 -2.75 45.640625 -4.09375 45.640625 -5.71875 C 45.640625 -7.34375 45.078125 -8.71875 43.953125 -9.84375 C 42.828125 -10.90625 41.453125 -11.4375 39.828125 -11.4375 L 21.921875 -11.4375 C 20.921875 -11.4375 20.078125 -11.78125 19.390625 -12.46875 C 18.703125 -13.15625 18.359375 -14 18.359375 -15 L 18.359375 -25.203125 C 18.359375 -26.203125 18.703125 -27.046875 19.390625 -27.734375 C 20.078125 -28.421875 20.921875 -28.765625 21.921875 -28.765625 L 34.765625 -28.765625 C 36.390625 -28.765625 37.765625 -29.328125 38.890625 -30.453125 C 39.953125 -31.515625 40.484375 -32.859375 40.484375 -34.484375 C 40.484375 -36.109375 39.921875 -37.484375 38.796875 -38.609375 C 37.671875 -39.671875 36.296875 -40.203125 34.671875 -40.203125 L 21.828125 -40.203125 C 20.828125 -40.203125 19.984375 -40.546875 19.296875 -41.234375 C 18.609375 -41.921875 18.265625 -42.765625 18.265625 -43.765625 L 18.265625 -50.5 C 18.265625 -51.5 18.609375 -52.34375 19.296875 -53.03125 C 19.984375 -53.71875 20.828125 -54.0625 21.828125 -54.0625 L 39.734375 -54.0625 C 41.359375 -54.0625 42.734375 -54.625 43.859375 -55.75 C 44.921875 -56.8125 45.453125 -58.15625 45.453125 -59.78125 C 45.453125 -61.40625 44.890625 -62.78125 43.765625 -63.90625 C 42.640625 -64.96875 41.265625 -65.5 39.640625 -65.5 L 12.46875 -65.5 C 10.84375 -65.5 9.46875 -64.9375 8.34375 -63.8125 C 7.21875 -62.6875 6.65625 -61.3125 6.65625 -59.6875 L 6.65625 -5.625 C 6.65625 -4 7.28125 -2.65625 8.53125 -1.59375 C 9.71875 -0.53125 11.125 0 12.75 0 Z M 39.921875 0 "/></g></g></g><g fill="#000000" fill-opacity="1"><g transform="translate(482.750065, 111.675056)"><g><path d="M 18.359375 -50.5 C 18.359375 -51.5 18.703125 -52.34375 19.390625 -53.03125 C 20.078125 -53.71875 20.921875 -54.0625 21.921875 -54.0625 L 28.296875 -54.0625 C 28.671875 -54.0625 29.328125 -54 30.265625 -53.875 C 31.140625 -53.75 32.078125 -53.4375 33.078125 -52.9375 C 34.015625 -52.4375 34.859375 -51.65625 35.609375 -50.59375 C 36.359375 -49.53125 36.734375 -48.066406 36.734375 -46.203125 C 36.734375 -44.328125 36.359375 -42.859375 35.609375 -41.796875 C 34.859375 -40.734375 34.015625 -39.953125 33.078125 -39.453125 C 32.078125 -38.953125 31.140625 -38.640625 30.265625 -38.515625 C 29.328125 -38.390625 28.671875 -38.328125 28.296875 -38.328125 L 21.921875 -38.328125 C 20.921875 -38.328125 20.078125 -38.671875 19.390625 -39.359375 C 18.703125 -40.046875 18.359375 -40.890625 18.359375 -41.890625 Z M 42.265625 -31.765625 C 46.378906 -35.515625 48.4375 -40.328125 48.4375 -46.203125 C 48.4375 -49.066406 47.9375 -51.6875 46.9375 -54.0625 C 45.882812 -56.4375 44.484375 -58.5 42.734375 -60.25 C 40.921875 -61.9375 38.796875 -63.28125 36.359375 -64.28125 C 33.921875 -65.21875 31.296875 -65.6875 28.484375 -65.6875 L 12.84375 -65.6875 C 11.21875 -65.6875 9.84375 -65.125 8.71875 -64 C 7.59375 -62.875 7.03125 -61.5 7.03125 -59.875 L 7.03125 -5.8125 C 7.03125 -4.1875 7.59375 -2.8125 8.71875 -1.6875 C 9.78125 -0.5625 11.125 0 12.75 0 C 14.375 0 15.742188 -0.5625 16.859375 -1.6875 C 17.921875 -2.75 18.453125 -4.09375 18.453125 -5.71875 L 18.453125 -23.703125 C 18.453125 -24.578125 18.734375 -25.296875 19.296875 -25.859375 C 19.859375 -26.421875 20.578125 -26.703125 21.453125 -26.703125 C 22.828125 -26.703125 23.921875 -26.078125 24.734375 -24.828125 L 38.234375 -2.71875 C 39.359375 -0.90625 40.984375 0 43.109375 0 C 44.234375 0 45.234375 -0.28125 46.109375 -0.84375 C 46.972656 -1.40625 47.65625 -2.125 48.15625 -3 C 48.59375 -3.8125 48.8125 -4.75 48.8125 -5.8125 C 48.8125 -6.8125 48.53125 -7.78125 47.96875 -8.71875 L 36.828125 -26.890625 C 36.640625 -27.203125 36.609375 -27.546875 36.734375 -27.921875 C 36.859375 -28.296875 37.078125 -28.546875 37.390625 -28.671875 C 39.078125 -29.421875 40.640625 -30.421875 42.078125 -31.671875 Z M 42.265625 -31.765625 "/></g></g></g></g></g></g></g></g></g></mask><clipPath id="ad2c8eac81"><path d="M 0.875 0 L 563.125 0 L 563.125 160 L 0.875 160 Z M 0.875 0 " clip-rule="nonzero"/></clipPath><linearGradient x1="-31.56667" gradientTransform="matrix(0.747676, 0, 0, 0.747283, 24.477429, 14.137797)" y1="87" x2="720.427988" gradientUnits="userSpaceOnUse" y2="87" id="9d18ae8b6c"><stop stop-opacity="1" stop-color="rgb(0%, 19.60907%, 90.979004%)" offset="0"/><stop stop-opacity="1" stop-color="rgb(0%, 19.60907%, 90.979004%)" offset="0.03125"/><stop stop-opacity="1" stop-color="rgb(0%, 19.60907%, 90.979004%)" offset="0.0390625"/><stop stop-opacity="1" stop-color="rgb(0%, 19.599915%, 90.730286%)" offset="0.0429688"/><stop stop-opacity="1" stop-color="rgb(0%, 19.592285%, 90.483093%)" offset="0.046875"/><stop stop-opacity="1" stop-color="rgb(0%, 19.578552%, 90.087891%)" offset="0.0507812"/><stop stop-opacity="1" stop-color="rgb(0%, 19.566345%, 89.692688%)" offset="0.0546875"/><stop stop-opacity="1" stop-color="rgb(0%, 19.552612%, 89.297485%)" offset="0.0585938"/><stop stop-opacity="1" stop-color="rgb(0%, 19.538879%, 88.902283%)" offset="0.0625"/><stop stop-opacity="1" stop-color="rgb(0%, 19.525146%, 88.50708%)" offset="0.0664062"/><stop stop-opacity="1" stop-color="rgb(0%, 19.511414%, 88.111877%)" offset="0.0703125"/><stop stop-opacity="1" stop-color="rgb(0%, 19.497681%, 87.716675%)" offset="0.0742188"/><stop stop-opacity="1" stop-color="rgb(0%, 19.485474%, 87.321472%)" offset="0.078125"/><stop stop-opacity="1" stop-color="rgb(0%, 19.471741%, 86.92627%)" offset="0.0820313"/><stop stop-opacity="1" stop-color="rgb(0%, 19.458008%, 86.531067%)" offset="0.0859375"/><stop stop-opacity="1" stop-color="rgb(0%, 19.444275%, 86.135864%)" offset="0.0898438"/><stop stop-opacity="1" stop-color="rgb(0%, 19.432068%, 85.740662%)" offset="0.09375"/><stop stop-opacity="1" stop-color="rgb(0%, 19.418335%, 85.345459%)" offset="0.0976562"/><stop stop-opacity="1" stop-color="rgb(0%, 19.404602%, 84.950256%)" offset="0.101562"/><stop stop-opacity="1" stop-color="rgb(0%, 19.390869%, 84.553528%)" offset="0.105469"/><stop stop-opacity="1" stop-color="rgb(0%, 19.377136%, 84.158325%)" offset="0.109375"/><stop stop-opacity="1" stop-color="rgb(0%, 19.363403%, 83.763123%)" offset="0.113281"/><stop stop-opacity="1" stop-color="rgb(0%, 19.351196%, 83.36792%)" offset="0.117188"/><stop stop-opacity="1" stop-color="rgb(0%, 19.337463%, 82.972717%)" offset="0.121094"/><stop stop-opacity="1" stop-color="rgb(0%, 19.32373%, 82.577515%)" offset="0.125"/><stop stop-opacity="1" stop-color="rgb(0%, 19.309998%, 82.182312%)" offset="0.128906"/><stop stop-opacity="1" stop-color="rgb(0%, 19.297791%, 81.787109%)" offset="0.132813"/><stop stop-opacity="1" stop-color="rgb(0%, 19.284058%, 81.391907%)" offset="0.136719"/><stop stop-opacity="1" stop-color="rgb(0%, 19.270325%, 80.996704%)" offset="0.140625"/><stop stop-opacity="1" stop-color="rgb(0%, 19.256592%, 80.601501%)" offset="0.144531"/><stop stop-opacity="1" stop-color="rgb(0%, 19.244385%, 80.206299%)" offset="0.148438"/><stop stop-opacity="1" stop-color="rgb(0%, 19.230652%, 79.811096%)" offset="0.152344"/><stop stop-opacity="1" stop-color="rgb(0%, 19.216919%, 79.415894%)" offset="0.15625"/><stop stop-opacity="1" stop-color="rgb(0%, 19.203186%, 79.020691%)" offset="0.160156"/><stop stop-opacity="1" stop-color="rgb(0%, 19.189453%, 78.625488%)" offset="0.164063"/><stop stop-opacity="1" stop-color="rgb(0%, 19.17572%, 78.230286%)" offset="0.167969"/><stop stop-opacity="1" stop-color="rgb(0%, 19.163513%, 77.835083%)" offset="0.171875"/><stop stop-opacity="1" stop-color="rgb(0%, 19.14978%, 77.438354%)" offset="0.175781"/><stop stop-opacity="1" stop-color="rgb(0%, 19.136047%, 77.043152%)" offset="0.179688"/><stop stop-opacity="1" stop-color="rgb(0%, 19.122314%, 76.647949%)" offset="0.183594"/><stop stop-opacity="1" stop-color="rgb(0%, 19.110107%, 76.252747%)" offset="0.1875"/><stop stop-opacity="1" stop-color="rgb(0%, 19.096375%, 75.857544%)" offset="0.191406"/><stop stop-opacity="1" stop-color="rgb(0%, 19.082642%, 75.462341%)" offset="0.195312"/><stop stop-opacity="1" stop-color="rgb(0%, 19.068909%, 75.067139%)" offset="0.199219"/><stop stop-opacity="1" stop-color="rgb(0%, 19.055176%, 74.671936%)" offset="0.203125"/><stop stop-opacity="1" stop-color="rgb(0%, 19.041443%, 74.276733%)" offset="0.207031"/><stop stop-opacity="1" stop-color="rgb(0%, 19.029236%, 73.881531%)" offset="0.210938"/><stop stop-opacity="1" stop-color="rgb(0%, 19.015503%, 73.486328%)" offset="0.214844"/><stop stop-opacity="1" stop-color="rgb(0%, 19.00177%, 73.091125%)" offset="0.21875"/><stop stop-opacity="1" stop-color="rgb(0%, 18.988037%, 72.695923%)" offset="0.222656"/><stop stop-opacity="1" stop-color="rgb(0%, 18.97583%, 72.30072%)" offset="0.226562"/><stop stop-opacity="1" stop-color="rgb(0%, 18.962097%, 71.905518%)" offset="0.230469"/><stop stop-opacity="1" stop-color="rgb(0%, 18.948364%, 71.510315%)" offset="0.234375"/><stop stop-opacity="1" stop-color="rgb(0%, 18.934631%, 71.115112%)" offset="0.238281"/><stop stop-opacity="1" stop-color="rgb(0%, 18.922424%, 70.71991%)" offset="0.242188"/><stop stop-opacity="1" stop-color="rgb(0%, 18.908691%, 70.323181%)" offset="0.246094"/><stop stop-opacity="1" stop-color="rgb(0%, 18.894958%, 69.927979%)" offset="0.25"/><stop stop-opacity="1" stop-color="rgb(0%, 18.881226%, 69.532776%)" offset="0.253906"/><stop stop-opacity="1" stop-color="rgb(0%, 18.867493%, 69.137573%)" offset="0.257812"/><stop stop-opacity="1" stop-color="rgb(0%, 18.85376%, 68.742371%)" offset="0.261719"/><stop stop-opacity="1" stop-color="rgb(0%, 18.841553%, 68.347168%)" offset="0.265625"/><stop stop-opacity="1" stop-color="rgb(0%, 18.82782%, 67.951965%)" offset="0.269531"/><stop stop-opacity="1" stop-color="rgb(0%, 18.814087%, 67.556763%)" offset="0.273438"/><stop stop-opacity="1" stop-color="rgb(0%, 18.800354%, 67.16156%)" offset="0.277344"/><stop stop-opacity="1" stop-color="rgb(0%, 18.788147%, 66.766357%)" offset="0.28125"/><stop stop-opacity="1" stop-color="rgb(0%, 18.774414%, 66.371155%)" offset="0.285156"/><stop stop-opacity="1" stop-color="rgb(0%, 18.760681%, 65.975952%)" offset="0.289062"/><stop stop-opacity="1" stop-color="rgb(0%, 18.746948%, 65.58075%)" offset="0.292969"/><stop stop-opacity="1" stop-color="rgb(0%, 18.734741%, 65.185547%)" offset="0.296875"/><stop stop-opacity="1" stop-color="rgb(0%, 18.721008%, 64.790344%)" offset="0.300781"/><stop stop-opacity="1" stop-color="rgb(0%, 18.707275%, 64.395142%)" offset="0.304688"/><stop stop-opacity="1" stop-color="rgb(0%, 18.693542%, 63.999939%)" offset="0.308594"/><stop stop-opacity="1" stop-color="rgb(0%, 18.67981%, 63.604736%)" offset="0.3125"/><stop stop-opacity="1" stop-color="rgb(0%, 18.666077%, 63.208008%)" offset="0.316406"/><stop stop-opacity="1" stop-color="rgb(0%, 18.65387%, 62.812805%)" offset="0.320312"/><stop stop-opacity="1" stop-color="rgb(0%, 18.640137%, 62.417603%)" offset="0.324219"/><stop stop-opacity="1" stop-color="rgb(0%, 18.626404%, 62.0224%)" offset="0.328125"/><stop stop-opacity="1" stop-color="rgb(0%, 18.612671%, 61.627197%)" offset="0.332031"/><stop stop-opacity="1" stop-color="rgb(0%, 18.600464%, 61.231995%)" offset="0.335938"/><stop stop-opacity="1" stop-color="rgb(0%, 18.586731%, 60.836792%)" offset="0.339844"/><stop stop-opacity="1" stop-color="rgb(0%, 18.572998%, 60.441589%)" offset="0.34375"/><stop stop-opacity="1" stop-color="rgb(0%, 18.559265%, 60.046387%)" offset="0.347656"/><stop stop-opacity="1" stop-color="rgb(0%, 18.545532%, 59.651184%)" offset="0.351562"/><stop stop-opacity="1" stop-color="rgb(0%, 18.531799%, 59.255981%)" offset="0.355469"/><stop stop-opacity="1" stop-color="rgb(0%, 18.519592%, 58.860779%)" offset="0.359375"/><stop stop-opacity="1" stop-color="rgb(0%, 18.505859%, 58.465576%)" offset="0.363281"/><stop stop-opacity="1" stop-color="rgb(0%, 18.492126%, 58.070374%)" offset="0.367188"/><stop stop-opacity="1" stop-color="rgb(0%, 18.478394%, 57.675171%)" offset="0.371094"/><stop stop-opacity="1" stop-color="rgb(0%, 18.466187%, 57.279968%)" offset="0.375"/><stop stop-opacity="1" stop-color="rgb(0%, 18.452454%, 56.884766%)" offset="0.378906"/><stop stop-opacity="1" stop-color="rgb(0%, 18.438721%, 56.489563%)" offset="0.382812"/><stop stop-opacity="1" stop-color="rgb(0%, 18.424988%, 56.092834%)" offset="0.386719"/><stop stop-opacity="1" stop-color="rgb(0%, 18.412781%, 55.697632%)" offset="0.390625"/><stop stop-opacity="1" stop-color="rgb(0%, 18.399048%, 55.302429%)" offset="0.394531"/><stop stop-opacity="1" stop-color="rgb(0%, 18.385315%, 54.907227%)" offset="0.398438"/><stop stop-opacity="1" stop-color="rgb(0%, 18.371582%, 54.512024%)" offset="0.402344"/><stop stop-opacity="1" stop-color="rgb(0%, 18.357849%, 54.116821%)" offset="0.40625"/><stop stop-opacity="1" stop-color="rgb(0%, 18.344116%, 53.721619%)" offset="0.410156"/><stop stop-opacity="1" stop-color="rgb(0%, 18.331909%, 53.326416%)" offset="0.414063"/><stop stop-opacity="1" stop-color="rgb(0%, 18.318176%, 52.931213%)" offset="0.417969"/><stop stop-opacity="1" stop-color="rgb(0%, 18.304443%, 52.536011%)" offset="0.421875"/><stop stop-opacity="1" stop-color="rgb(0%, 18.29071%, 52.140808%)" offset="0.425781"/><stop stop-opacity="1" stop-color="rgb(0%, 18.278503%, 51.745605%)" offset="0.429688"/><stop stop-opacity="1" stop-color="rgb(0%, 18.264771%, 51.350403%)" offset="0.433594"/><stop stop-opacity="1" stop-color="rgb(0%, 18.251038%, 50.9552%)" offset="0.4375"/><stop stop-opacity="1" stop-color="rgb(0%, 18.237305%, 50.559998%)" offset="0.441406"/><stop stop-opacity="1" stop-color="rgb(0%, 18.225098%, 50.164795%)" offset="0.445313"/><stop stop-opacity="1" stop-color="rgb(0%, 18.211365%, 49.769592%)" offset="0.449219"/><stop stop-opacity="1" stop-color="rgb(0%, 18.197632%, 49.37439%)" offset="0.453125"/><stop stop-opacity="1" stop-color="rgb(0%, 18.183899%, 48.977661%)" offset="0.457031"/><stop stop-opacity="1" stop-color="rgb(0%, 18.170166%, 48.582458%)" offset="0.460938"/><stop stop-opacity="1" stop-color="rgb(0%, 18.156433%, 48.187256%)" offset="0.464844"/><stop stop-opacity="1" stop-color="rgb(0%, 18.144226%, 47.792053%)" offset="0.46875"/><stop stop-opacity="1" stop-color="rgb(0%, 18.130493%, 47.396851%)" offset="0.472656"/><stop stop-opacity="1" stop-color="rgb(0%, 18.11676%, 47.001648%)" offset="0.476563"/><stop stop-opacity="1" stop-color="rgb(0%, 18.103027%, 46.606445%)" offset="0.480469"/><stop stop-opacity="1" stop-color="rgb(0%, 18.09082%, 46.211243%)" offset="0.484375"/><stop stop-opacity="1" stop-color="rgb(0%, 18.077087%, 45.81604%)" offset="0.488281"/><stop stop-opacity="1" stop-color="rgb(0%, 18.063354%, 45.420837%)" offset="0.492188"/><stop stop-opacity="1" stop-color="rgb(0.0778198%, 18.035889%, 45.111084%)" offset="0.496094"/><stop stop-opacity="1" stop-color="rgb(0.157166%, 18.008423%, 44.802856%)" offset="0.5"/><stop stop-opacity="1" stop-color="rgb(0.944519%, 17.854309%, 45.275879%)" offset="0.503906"/><stop stop-opacity="1" stop-color="rgb(1.731873%, 17.700195%, 45.748901%)" offset="0.507812"/><stop stop-opacity="1" stop-color="rgb(2.5177%, 17.546082%, 46.220398%)" offset="0.511719"/><stop stop-opacity="1" stop-color="rgb(3.305054%, 17.391968%, 46.69342%)" offset="0.515625"/><stop stop-opacity="1" stop-color="rgb(4.092407%, 17.237854%, 47.164917%)" offset="0.519531"/><stop stop-opacity="1" stop-color="rgb(4.879761%, 17.08374%, 47.637939%)" offset="0.523438"/><stop stop-opacity="1" stop-color="rgb(5.667114%, 16.929626%, 48.109436%)" offset="0.527344"/><stop stop-opacity="1" stop-color="rgb(6.454468%, 16.775513%, 48.582458%)" offset="0.53125"/><stop stop-opacity="1" stop-color="rgb(7.241821%, 16.621399%, 49.053955%)" offset="0.535156"/><stop stop-opacity="1" stop-color="rgb(8.029175%, 16.467285%, 49.526978%)" offset="0.539062"/><stop stop-opacity="1" stop-color="rgb(8.816528%, 16.313171%, 49.998474%)" offset="0.542969"/><stop stop-opacity="1" stop-color="rgb(9.603882%, 16.159058%, 50.471497%)" offset="0.546875"/><stop stop-opacity="1" stop-color="rgb(10.391235%, 16.004944%, 50.942993%)" offset="0.550781"/><stop stop-opacity="1" stop-color="rgb(11.178589%, 15.85083%, 51.416016%)" offset="0.554688"/><stop stop-opacity="1" stop-color="rgb(11.965942%, 15.696716%, 51.887512%)" offset="0.558594"/><stop stop-opacity="1" stop-color="rgb(12.753296%, 15.542603%, 52.360535%)" offset="0.5625"/><stop stop-opacity="1" stop-color="rgb(13.540649%, 15.388489%, 52.832031%)" offset="0.566406"/><stop stop-opacity="1" stop-color="rgb(14.328003%, 15.234375%, 53.305054%)" offset="0.570313"/><stop stop-opacity="1" stop-color="rgb(15.115356%, 15.080261%, 53.778076%)" offset="0.574219"/><stop stop-opacity="1" stop-color="rgb(15.90271%, 14.926147%, 54.251099%)" offset="0.578125"/><stop stop-opacity="1" stop-color="rgb(16.690063%, 14.772034%, 54.722595%)" offset="0.582031"/><stop stop-opacity="1" stop-color="rgb(17.477417%, 14.61792%, 55.195618%)" offset="0.585938"/><stop stop-opacity="1" stop-color="rgb(18.264771%, 14.463806%, 55.667114%)" offset="0.589844"/><stop stop-opacity="1" stop-color="rgb(19.052124%, 14.309692%, 56.140137%)" offset="0.59375"/><stop stop-opacity="1" stop-color="rgb(19.839478%, 14.155579%, 56.611633%)" offset="0.597656"/><stop stop-opacity="1" stop-color="rgb(20.626831%, 14.001465%, 57.084656%)" offset="0.601562"/><stop stop-opacity="1" stop-color="rgb(21.414185%, 13.847351%, 57.556152%)" offset="0.605469"/><stop stop-opacity="1" stop-color="rgb(22.201538%, 13.693237%, 58.029175%)" offset="0.609375"/><stop stop-opacity="1" stop-color="rgb(22.988892%, 13.539124%, 58.500671%)" offset="0.613281"/><stop stop-opacity="1" stop-color="rgb(23.776245%, 13.38501%, 58.973694%)" offset="0.617188"/><stop stop-opacity="1" stop-color="rgb(24.563599%, 13.230896%, 59.44519%)" offset="0.621094"/><stop stop-opacity="1" stop-color="rgb(25.350952%, 13.076782%, 59.918213%)" offset="0.625"/><stop stop-opacity="1" stop-color="rgb(26.138306%, 12.922668%, 60.389709%)" offset="0.628906"/><stop stop-opacity="1" stop-color="rgb(26.925659%, 12.768555%, 60.862732%)" offset="0.632813"/><stop stop-opacity="1" stop-color="rgb(27.713013%, 12.614441%, 61.335754%)" offset="0.636719"/><stop stop-opacity="1" stop-color="rgb(28.500366%, 12.460327%, 61.808777%)" offset="0.640625"/><stop stop-opacity="1" stop-color="rgb(29.28772%, 12.306213%, 62.280273%)" offset="0.644531"/><stop stop-opacity="1" stop-color="rgb(30.075073%, 12.1521%, 62.753296%)" offset="0.648438"/><stop stop-opacity="1" stop-color="rgb(30.862427%, 11.997986%, 63.224792%)" offset="0.652344"/><stop stop-opacity="1" stop-color="rgb(31.64978%, 11.843872%, 63.697815%)" offset="0.65625"/><stop stop-opacity="1" stop-color="rgb(32.437134%, 11.689758%, 64.169312%)" offset="0.660156"/><stop stop-opacity="1" stop-color="rgb(33.224487%, 11.535645%, 64.642334%)" offset="0.664062"/><stop stop-opacity="1" stop-color="rgb(34.011841%, 11.381531%, 65.113831%)" offset="0.667969"/><stop stop-opacity="1" stop-color="rgb(34.799194%, 11.227417%, 65.586853%)" offset="0.671875"/><stop stop-opacity="1" stop-color="rgb(35.586548%, 11.073303%, 66.05835%)" offset="0.675781"/><stop stop-opacity="1" stop-color="rgb(36.373901%, 10.919189%, 66.531372%)" offset="0.679688"/><stop stop-opacity="1" stop-color="rgb(37.161255%, 10.765076%, 67.002869%)" offset="0.683594"/><stop stop-opacity="1" stop-color="rgb(37.948608%, 10.610962%, 67.475891%)" offset="0.6875"/><stop stop-opacity="1" stop-color="rgb(38.735962%, 10.456848%, 67.947388%)" offset="0.691406"/><stop stop-opacity="1" stop-color="rgb(39.523315%, 10.302734%, 68.42041%)" offset="0.695313"/><stop stop-opacity="1" stop-color="rgb(40.310669%, 10.148621%, 68.891907%)" offset="0.699219"/><stop stop-opacity="1" stop-color="rgb(41.098022%, 9.994507%, 69.364929%)" offset="0.703125"/><stop stop-opacity="1" stop-color="rgb(41.885376%, 9.840393%, 69.837952%)" offset="0.707031"/><stop stop-opacity="1" stop-color="rgb(42.672729%, 9.686279%, 70.310974%)" offset="0.710938"/><stop stop-opacity="1" stop-color="rgb(43.460083%, 9.532166%, 70.782471%)" offset="0.714844"/><stop stop-opacity="1" stop-color="rgb(44.247437%, 9.378052%, 71.255493%)" offset="0.71875"/><stop stop-opacity="1" stop-color="rgb(45.03479%, 9.223938%, 71.72699%)" offset="0.722656"/><stop stop-opacity="1" stop-color="rgb(45.822144%, 9.069824%, 72.200012%)" offset="0.726562"/><stop stop-opacity="1" stop-color="rgb(46.609497%, 8.91571%, 72.671509%)" offset="0.730469"/><stop stop-opacity="1" stop-color="rgb(47.396851%, 8.761597%, 73.144531%)" offset="0.734375"/><stop stop-opacity="1" stop-color="rgb(48.184204%, 8.607483%, 73.616028%)" offset="0.738281"/><stop stop-opacity="1" stop-color="rgb(48.971558%, 8.453369%, 74.08905%)" offset="0.742188"/><stop stop-opacity="1" stop-color="rgb(49.757385%, 8.299255%, 74.560547%)" offset="0.746094"/><stop stop-opacity="1" stop-color="rgb(50.544739%, 8.145142%, 75.033569%)" offset="0.75"/><stop stop-opacity="1" stop-color="rgb(51.332092%, 7.991028%, 75.505066%)" offset="0.753906"/><stop stop-opacity="1" stop-color="rgb(52.119446%, 7.836914%, 75.978088%)" offset="0.757813"/><stop stop-opacity="1" stop-color="rgb(52.906799%, 7.6828%, 76.449585%)" offset="0.761719"/><stop stop-opacity="1" stop-color="rgb(53.694153%, 7.528687%, 76.922607%)" offset="0.765625"/><stop stop-opacity="1" stop-color="rgb(54.481506%, 7.374573%, 77.394104%)" offset="0.769531"/><stop stop-opacity="1" stop-color="rgb(55.26886%, 7.220459%, 77.867126%)" offset="0.773438"/><stop stop-opacity="1" stop-color="rgb(56.056213%, 7.066345%, 78.340149%)" offset="0.777344"/><stop stop-opacity="1" stop-color="rgb(56.843567%, 6.912231%, 78.813171%)" offset="0.78125"/><stop stop-opacity="1" stop-color="rgb(57.63092%, 6.758118%, 79.284668%)" offset="0.785156"/><stop stop-opacity="1" stop-color="rgb(58.418274%, 6.604004%, 79.75769%)" offset="0.789062"/><stop stop-opacity="1" stop-color="rgb(59.205627%, 6.44989%, 80.229187%)" offset="0.792969"/><stop stop-opacity="1" stop-color="rgb(59.992981%, 6.295776%, 80.702209%)" offset="0.796875"/><stop stop-opacity="1" stop-color="rgb(60.780334%, 6.141663%, 81.173706%)" offset="0.800781"/><stop stop-opacity="1" stop-color="rgb(61.567688%, 5.987549%, 81.646729%)" offset="0.804688"/><stop stop-opacity="1" stop-color="rgb(62.355042%, 5.833435%, 82.118225%)" offset="0.808594"/><stop stop-opacity="1" stop-color="rgb(63.142395%, 5.679321%, 82.591248%)" offset="0.8125"/><stop stop-opacity="1" stop-color="rgb(63.929749%, 5.525208%, 83.062744%)" offset="0.816406"/><stop stop-opacity="1" stop-color="rgb(64.717102%, 5.371094%, 83.535767%)" offset="0.820313"/><stop stop-opacity="1" stop-color="rgb(65.504456%, 5.21698%, 84.007263%)" offset="0.824219"/><stop stop-opacity="1" stop-color="rgb(66.291809%, 5.062866%, 84.480286%)" offset="0.828125"/><stop stop-opacity="1" stop-color="rgb(67.079163%, 4.908752%, 84.951782%)" offset="0.832031"/><stop stop-opacity="1" stop-color="rgb(67.866516%, 4.754639%, 85.424805%)" offset="0.835938"/><stop stop-opacity="1" stop-color="rgb(68.65387%, 4.600525%, 85.896301%)" offset="0.839844"/><stop stop-opacity="1" stop-color="rgb(69.441223%, 4.446411%, 86.369324%)" offset="0.84375"/><stop stop-opacity="1" stop-color="rgb(70.228577%, 4.292297%, 86.842346%)" offset="0.847656"/><stop stop-opacity="1" stop-color="rgb(71.01593%, 4.138184%, 87.315369%)" offset="0.851562"/><stop stop-opacity="1" stop-color="rgb(71.803284%, 3.98407%, 87.786865%)" offset="0.855469"/><stop stop-opacity="1" stop-color="rgb(72.590637%, 3.829956%, 88.259888%)" offset="0.859375"/><stop stop-opacity="1" stop-color="rgb(73.377991%, 3.675842%, 88.731384%)" offset="0.863281"/><stop stop-opacity="1" stop-color="rgb(74.165344%, 3.521729%, 89.204407%)" offset="0.867188"/><stop stop-opacity="1" stop-color="rgb(74.952698%, 3.367615%, 89.675903%)" offset="0.871094"/><stop stop-opacity="1" stop-color="rgb(75.740051%, 3.213501%, 90.148926%)" offset="0.875"/><stop stop-opacity="1" stop-color="rgb(76.527405%, 3.059387%, 90.620422%)" offset="0.878906"/><stop stop-opacity="1" stop-color="rgb(77.314758%, 2.905273%, 91.093445%)" offset="0.882812"/><stop stop-opacity="1" stop-color="rgb(78.102112%, 2.75116%, 91.564941%)" offset="0.886719"/><stop stop-opacity="1" stop-color="rgb(78.889465%, 2.597046%, 92.037964%)" offset="0.890625"/><stop stop-opacity="1" stop-color="rgb(79.676819%, 2.442932%, 92.50946%)" offset="0.894531"/><stop stop-opacity="1" stop-color="rgb(80.464172%, 2.288818%, 92.982483%)" offset="0.898438"/><stop stop-opacity="1" stop-color="rgb(81.251526%, 2.134705%, 93.453979%)" offset="0.902344"/><stop stop-opacity="1" stop-color="rgb(82.038879%, 1.980591%, 93.927002%)" offset="0.90625"/><stop stop-opacity="1" stop-color="rgb(82.826233%, 1.826477%, 94.398499%)" offset="0.910156"/><stop stop-opacity="1" stop-color="rgb(83.613586%, 1.672363%, 94.871521%)" offset="0.914062"/><stop stop-opacity="1" stop-color="rgb(84.40094%, 1.51825%, 95.344543%)" offset="0.917969"/><stop stop-opacity="1" stop-color="rgb(85.188293%, 1.364136%, 95.817566%)" offset="0.921875"/><stop stop-opacity="1" stop-color="rgb(85.975647%, 1.210022%, 96.289062%)" offset="0.925781"/><stop stop-opacity="1" stop-color="rgb(86.763%, 1.055908%, 96.762085%)" offset="0.929688"/><stop stop-opacity="1" stop-color="rgb(87.550354%, 0.901794%, 97.233582%)" offset="0.933594"/><stop stop-opacity="1" stop-color="rgb(88.337708%, 0.747681%, 97.706604%)" offset="0.9375"/><stop stop-opacity="1" stop-color="rgb(89.125061%, 0.593567%, 98.178101%)" offset="0.941406"/><stop stop-opacity="1" stop-color="rgb(89.912415%, 0.439453%, 98.651123%)" offset="0.945312"/><stop stop-opacity="1" stop-color="rgb(90.699768%, 0.285339%, 99.12262%)" offset="0.949219"/><stop stop-opacity="1" stop-color="rgb(91.487122%, 0.131226%, 99.595642%)" offset="0.953125"/><stop stop-opacity="1" stop-color="rgb(91.822815%, 0.0656128%, 99.797058%)" offset="0.957031"/><stop stop-opacity="1" stop-color="rgb(92.158508%, 0%, 100%)" offset="0.960937"/><stop stop-opacity="1" stop-color="rgb(92.158508%, 0%, 100%)" offset="0.96875"/><stop stop-opacity="1" stop-color="rgb(92.158508%, 0%, 100%)" offset="1"/></linearGradient><clipPath id="aef3cd8eac"><rect x="0" width="564" y="0" height="160"/></clipPath><clipPath id="b053914b56"><rect x="0" width="564" y="0" height="160"/></clipPath></defs><g clip-path="url(#b2372384b7)"><g><g clip-path="url(#b053914b56)"><g clip-path="url(#d228291ffe)"><g mask="url(#b5af9520d6)"><g><g clip-path="url(#aef3cd8eac)"><g clip-path="url(#ad2c8eac81)"><path fill="url(#9d18ae8b6c)" d="M 0.875 0 L 0.875 160 L 563.125 160 L 563.125 0 Z M 0.875 0 " fill-rule="nonzero"/></g></g></g></g></g></g></g></g></svg>